{"title":"Face Off.S02E04.720p.x264.HDTV-r3mnants","uid":7004753,"size":733810899,"categoryP":"video","categoryS":"hd___tv_shows","magnet":"?xt=urn:btih:f8989295f8bd5596f74bb1a829a038795c227a42&amp;dn=Face+Off.S02E04.720p.x264.HDTV-r3mnants&amp;tr=udp%3A%2F%2Ftracker.openbittorrent.com%3A80&amp;tr=udp%3A%2F%2Fopen.demonii.com%3A1337&amp;tr=udp%3A%2F%2Ftracker.coppersurfer.tk%3A6969&amp;tr=udp%3A%2F%2Fexodus.desync.com%3A6969","seeders":0,"leechers":0,"uploader":"r3mnants","files":3,"time":1328227774,"description":"Face Off - Night Terrors - S02E04\n\nReleaser:\nr3mnants\n &lt;a href=&quot;\nhttp://s13.postimage.org/fa3q4ktg5/FO1.png&quot; rel=&quot;nofollow&quot; target=&quot;_NEW&quot;&gt;\nhttp://s13.postimage.org/fa3q4ktg5/FO1.png&lt;/a&gt; &lt;a href=&quot;\nhttp://s13.postimage.org/kk8ovvdp1/FO2.png&quot; rel=&quot;nofollow&quot; target=&quot;_NEW&quot;&gt;\nhttp://s13.postimage.org/kk8ovvdp1/FO2.png&lt;/a&gt;\n\nFormat : MPEG-4\nFormat profile : Base Media\nCodec ID : isom\nFile size : 693 MiB\nDuration : 42mn 59s\nOverall bit rate mode : Variable\nOverall bit rate : 2 253 Kbps\n\nVideo\nID : 1\nFormat : AVC\nFormat/Info : Advanced Video Codec\nFormat profile : &lt;a class=&quot;__cf_email__&quot; href=&quot;/cdn-cgi/l/email-protection&quot; data-cfemail=&quot;763e1f111e363a425846&quot;&gt;[email&amp;#160;protected]&lt;/a&gt;&lt;script cf-hash='f9e31' type=&quot;text/javascript&quot;&gt;\n/* &lt;![CDATA[ */!function(){try{var t=&quot;currentScript&quot;in document?document.currentScript:function(){for(var t=document.getElementsByTagName(&quot;script&quot;),e=t.length;e--;)if(t[e].getAttribute(&quot;cf-hash&quot;))return t[e]}();if(t&amp;&amp;t.previousSibling){var e,r,n,i,c=t.previousSibling,a=c.getAttribute(&quot;data-cfemail&quot;);if(a){for(e=&quot;&quot;,r=parseInt(a.substr(0,2),16),n=2;a.length-n;n+=2)i=parseInt(a.substr(n,2),16)^r,e+=String.fromCharCode(i);e=document.createTextNode(e),c.parentNode.replaceChild(e,c)}}}catch(u){}}();/* ]]&gt; */&lt;/script&gt;\nFormat settings, CABAC : Yes\nFormat settings, ReFrames : 3 frames\nCodec ID : avc1\nCodec ID/Info : Advanced Video Coding\nDuration : 42mn 59s\nBit rate mode : Variable\nBit rate : 2 121 Kbps\nMaximum bit rate : 25.0 Mbps\nWidth : 1280 pixels\nHeight : 720 pixels\nDisplay aspect ratio : 16:9\nFrame rate mode : Constant\nFrame rate : 29.970 fps\nColor space : YUV\nChroma subsampling : 4:2:0\nBit depth : 8 bits\nScan type : Progressive\nBits/(Pixel*Frame) : 0.077\nStream size : 652 MiB (94%)\nTitle : FOS02E04\nWriting library : x264 core 120 r2120 0c7dab9\n\nAudio\nID : 2\nFormat : AAC\nFormat/Info : Advanced Audio Codec\nFormat profile : LC\nCodec ID : 40\nDuration : 42mn 59s\nBit rate mode : Variable\nBit rate : 128 Kbps\nMaximum bit rate : 168 Kbps\nChannel(s) : 2 channels\nChannel positions : Front: L R\nSampling rate : 48.0 KHz\nCompression mode : Lossy\nStream size : 39.4 MiB (6%)","torrent":{"xt":"urn:btih:f8989295f8bd5596f74bb1a829a038795c227a42","amp;dn":"Face+Off.S02E04.720p.x264.HDTV-r3mnants","amp;tr":["udp%3A%2F%2Ftracker.openbittorrent.com%3A80","udp%3A%2F%2Fopen.demonii.com%3A1337","udp%3A%2F%2Ftracker.coppersurfer.tk%3A6969","udp%3A%2F%2Fexodus.desync.com%3A6969"],"infoHash":"f8989295f8bd5596f74bb1a829a038795c227a42","infoHashBuffer":{"type":"Buffer","data":[248,152,146,149,248,189,85,150,247,75,177,168,41,160,56,121,92,34,122,66]},"announce":[],"urlList":[]}}